<svg xmlns="http://www.w3.org/2000/svg"

    viewBox="0 0 424 58"
    role="presentation"
  >
    <g>
			<path d="M28.3,47.7H18.1L0,2.7H10.4L26.8,44.3,42.4,4.8a7.8,7.8,0,0,0,.4-2.1h3.5Z"  class="ttlColor0"/>
			<path d="M58.3,5a5.1,5.1,0,0,1-5,5,5,5,0,0,1-4.9-5,5,5,0,1,1,9.9,0ZM49,47.7v-33h8.7v33Z"  class="ttlColor0"/>
			<path d="M86.3,21.1a15.3,15.3,0,0,0-10-4.5c-4.2,0-7,1.8-7,4.6s1.7,3.9,7.3,5.7c10.2,3.3,13.2,6,13.2,11.6s-4.9,9.6-15.1,9.6a27.7,27.7,0,0,1-14.4-3.6l1.8-3.7a18.2,18.2,0,0,0,11.7,4.7c5,0,7.9-1.8,7.9-4.8s-2.3-4.5-9.7-6.8S61.7,28.7,61.7,23.8s5-9.6,13.8-9.6a23.5,23.5,0,0,1,12.7,3.3Z"  class="ttlColor0"/>
			<path d="M114.7,47.7V43.6c-2.3,3.2-5.3,4.5-10.1,4.5C95.2,48.1,91,44.2,91,35.6V14.7h8.7V35.2a19.9,19.9,0,0,0,.7,6.2,6.3,6.3,0,0,0,6.3,4.4c4.6,0,8-4,8-9.3V14.7h8.7v33Z"  class="ttlColor0"/>
			<path d="M150.2,43.7a17.5,17.5,0,0,1-12.1,4.4c-7.4,0-11.7-3.5-11.7-9.5s4.8-9.9,15.4-11.2c3.7-.5,6.9-1.1,8.3-1.4a13,13,0,0,0-.6-4.6,7.1,7.1,0,0,0-7.2-5.3c-3.8,0-7.9,2.2-11.4,6.1l-2.2-4.5a31,31,0,0,1,14.5-3.8c6.3,0,10.6,1.4,13,4.2s2.6,4.7,2.6,9.6v20h-8.6Zm-1.3-15.1-2.2.3c-6.1,1.1-6.1,1.1-7.6,1.8a6.7,6.7,0,0,0-3.8,6.5c0,4.1,2.8,6.6,7.1,6.6a10.8,10.8,0,0,0,7.8-2.8V28.3Z"  class="ttlColor0"/>
			<path d="M161.8,47.7V.3h8.7V47.7Z"  class="ttlColor0"/>
			<path d="M210.1,5.1V47.7h-9.6V5.1H184.4V2.7h41.7V5.1Z"  class="ttlColor0"/>
			<path d="M250.2,30.8c0,11-6.7,17.5-18,17.5s-18.4-6.6-18.4-17.6,7.1-16.8,18.5-16.8S250.2,20.2,250.2,30.8Zm-27.5-.1c0,9,3.8,15.1,9.5,15.1s9.1-5.9,9.1-15.1-3.6-14.4-9-14.4S222.7,22.3,222.7,30.7Z"  class="ttlColor0"/>
			<path d="M249.9,14.7h9.7L269.7,39l9.9-22.1a4.7,4.7,0,0,0,.5-2.2h3.6L267.4,49.9c-2.6,5.4-6.9,8.4-12.5,8.4l-3-.2-.6-3.3a21.2,21.2,0,0,0,3.9.2c3.7,0,5.4-.6,7.2-2.6a20.2,20.2,0,0,0,2.1-3l.3-.7Z"  class="ttlColor0"/>
			<path d="M284.3,32.9v-4h14.6v4Z"  class="ttlColor0"/>
			<path d="M321.4,2.7a32,32,0,0,1,9.9,1.2c5.1,1.7,7.8,5.1,7.8,9.7,0,6.3-3.8,9.7-11.7,10.4,9.6.9,14.4,4.9,14.4,11.8s-3.3,9.3-9.9,10.9a52.5,52.5,0,0,1-10.9,1H304.6V2.7ZM319.9,23c6.5,0,9.6-2.8,9.6-9,0-3.7-1.3-6.3-3.8-7.7a11.7,11.7,0,0,0-6-1.2h-6.1V23Zm.3,22.3c8.1,0,11.9-3.1,11.9-9.6s-4-10.3-12-10.3h-6.5V45.3Z"  class="ttlColor0"/>
			<path d="M380.3,30.8c0,11-6.7,17.5-18,17.5s-18.4-6.6-18.4-17.6,7-16.8,18.4-16.8S380.3,20.2,380.3,30.8Zm-27.5-.1c0,9,3.8,15.1,9.5,15.1s9.1-5.9,9.1-15.1-3.6-14.4-9.1-14.4S352.8,22.3,352.8,30.7Z"  class="ttlColor0"/>
			<path d="M396.9,28l14.9,19.7H400.6l-9.2-13-9.7,11.4a2.1,2.1,0,0,0-.8,1.6h-4.2l13.1-15.3L377.3,14.7h10.1l7.9,11.2,8-9.3a3.6,3.6,0,0,0,.9-1.9h4.3Z"  class="ttlColor0"/>
			<path d="M424.4,43.3a5,5,0,1,1-5-5.1A5.2,5.2,0,0,1,424.4,43.3Z"  class="ttlColor0"/>
    </g>
  </svg>